<?xml version="1.0" encoding="UTF-8" standalone="no"?>
<!DOCTYPE svg PUBLIC "-//W3C//DTD SVG 1.1//EN"
 "http://www.w3.org/Graphics/SVG/1.1/DTD/svg11.dtd">
<!-- Generated by graphviz version 2.40.1 (20161225.0304)
 -->
<!-- Title: dependencies Pages: 1 -->
<svg width="504pt" height="211pt"
 viewBox="0.00 0.00 504.00 211.00" xmlns="http://www.w3.org/2000/svg" xmlns:xlink="http://www.w3.org/1999/xlink">
<g id="graph0" class="graph" transform="scale(1 1) rotate(0) translate(4 207)">
<title>dependencies</title>
<polygon fill="#ffffff" stroke="transparent" points="-4,4 -4,-207 500,-207 500,4 -4,4"/>
<text text-anchor="start" x="227.0091" y="-42.4" font-family="sans-serif" font-weight="bold" font-size="14.00" fill="#000000">Legend</text>
<polygon fill="#ffffb3" stroke="transparent" points="14,-10 14,-30 34,-30 34,-10 14,-10"/>
<text text-anchor="start" x="37.629" y="-15.4" font-family="sans-serif" font-size="14.00" fill="#000000"> &#160;Declarations</text>
<polygon fill="#8dd3c7" stroke="transparent" points="127,-10 127,-30 147,-30 147,-10 127,-10"/>
<text text-anchor="start" x="150.7251" y="-15.4" font-family="sans-serif" font-size="14.00" fill="#000000"> &#160;Module</text>
<polygon fill="#80b1d3" stroke="transparent" points="213,-10 213,-30 233,-30 233,-10 213,-10"/>
<text text-anchor="start" x="236.7812" y="-15.4" font-family="sans-serif" font-size="14.00" fill="#000000"> &#160;Bootstrap</text>
<polygon fill="#fdb462" stroke="transparent" points="310,-10 310,-30 330,-30 330,-10 310,-10"/>
<text text-anchor="start" x="333.6732" y="-15.4" font-family="sans-serif" font-size="14.00" fill="#000000"> &#160;Providers</text>
<polygon fill="#fb8072" stroke="transparent" points="406,-10 406,-30 426,-30 426,-10 406,-10"/>
<text text-anchor="start" x="429.7258" y="-15.4" font-family="sans-serif" font-size="14.00" fill="#000000"> &#160;Exports</text>
<g id="clust1" class="cluster">
<title>cluster_CoreModule</title>
<polygon fill="none" stroke="#000000" stroke-dasharray="1,5" points="67,-70 67,-195 429,-195 429,-70 67,-70"/>
</g>
<g id="clust6" class="cluster">
<title>cluster_CoreModule_providers</title>
<polygon fill="none" stroke="#000000" points="75,-78 75,-130 421,-130 421,-78 75,-78"/>
</g>
<!-- WeatherInteceptor -->
<g id="node1" class="node">
<title>WeatherInteceptor</title>
<ellipse fill="#fdb462" stroke="#000000" cx="330" cy="-104" rx="82.7627" ry="18"/>
<text text-anchor="middle" x="330" y="-99.8" font-family="Times,serif" font-size="14.00" fill="#000000">WeatherInteceptor</text>
</g>
<!-- CoreModule -->
<g id="node3" class="node">
<title>CoreModule</title>
<polygon fill="#8dd3c7" stroke="#000000" points="286.2619,-187 283.2619,-191 262.2619,-191 259.2619,-187 199.7381,-187 199.7381,-151 286.2619,-151 286.2619,-187"/>
<text text-anchor="middle" x="243" y="-164.8" font-family="Times,serif" font-size="14.00" fill="#000000">CoreModule</text>
</g>
<!-- WeatherInteceptor&#45;&gt;CoreModule -->
<g id="edge1" class="edge">
<title>WeatherInteceptor&#45;&gt;CoreModule</title>
<path fill="none" stroke="#000000" d="M266.7498,-115.922C266.7498,-115.922 266.7498,-140.7669 266.7498,-140.7669"/>
<polygon fill="#000000" stroke="#000000" points="263.2499,-140.7669 266.7498,-150.7669 270.2499,-140.7669 263.2499,-140.7669"/>
</g>
<!-- WeatherService -->
<g id="node2" class="node">
<title>WeatherService</title>
<ellipse fill="#fdb462" stroke="#000000" cx="156" cy="-104" rx="72.8889" ry="18"/>
<text text-anchor="middle" x="156" y="-99.8" font-family="Times,serif" font-size="14.00" fill="#000000">WeatherService</text>
</g>
<!-- WeatherService&#45;&gt;CoreModule -->
<g id="edge2" class="edge">
<title>WeatherService&#45;&gt;CoreModule</title>
<path fill="none" stroke="#000000" d="M214.1567,-115.0264C214.1567,-115.0264 214.1567,-140.7791 214.1567,-140.7791"/>
<polygon fill="#000000" stroke="#000000" points="210.6568,-140.779 214.1567,-150.7791 217.6568,-140.7791 210.6568,-140.779"/>
</g>
</g>
</svg>
