<?xml version="1.0" encoding="UTF-8" standalone="no"?>
<!DOCTYPE svg PUBLIC "-//W3C//DTD SVG 1.1//EN"
 "http://www.w3.org/Graphics/SVG/1.1/DTD/svg11.dtd">
<!-- Generated by graphviz version 2.40.1 (20161225.0304)
 -->
<!-- Title: dependencies Pages: 1 -->
<svg width="512pt" height="284pt"
 viewBox="0.00 0.00 512.00 284.00" xmlns="http://www.w3.org/2000/svg" xmlns:xlink="http://www.w3.org/1999/xlink">
<g id="graph0" class="graph" transform="scale(1 1) rotate(0) translate(4 280)">
<title>dependencies</title>
<polygon fill="#ffffff" stroke="transparent" points="-4,4 -4,-280 508,-280 508,4 -4,4"/>
<text text-anchor="start" x="231.0091" y="-42.4" font-family="sans-serif" font-weight="bold" font-size="14.00" fill="#000000">Legend</text>
<polygon fill="#ffffb3" stroke="transparent" points="18,-10 18,-30 38,-30 38,-10 18,-10"/>
<text text-anchor="start" x="41.629" y="-15.4" font-family="sans-serif" font-size="14.00" fill="#000000"> &#160;Declarations</text>
<polygon fill="#8dd3c7" stroke="transparent" points="131,-10 131,-30 151,-30 151,-10 131,-10"/>
<text text-anchor="start" x="154.7251" y="-15.4" font-family="sans-serif" font-size="14.00" fill="#000000"> &#160;Module</text>
<polygon fill="#80b1d3" stroke="transparent" points="217,-10 217,-30 237,-30 237,-10 217,-10"/>
<text text-anchor="start" x="240.7812" y="-15.4" font-family="sans-serif" font-size="14.00" fill="#000000"> &#160;Bootstrap</text>
<polygon fill="#fdb462" stroke="transparent" points="314,-10 314,-30 334,-30 334,-10 314,-10"/>
<text text-anchor="start" x="337.6732" y="-15.4" font-family="sans-serif" font-size="14.00" fill="#000000"> &#160;Providers</text>
<polygon fill="#fb8072" stroke="transparent" points="410,-10 410,-30 430,-30 430,-10 410,-10"/>
<text text-anchor="start" x="433.7258" y="-15.4" font-family="sans-serif" font-size="14.00" fill="#000000"> &#160;Exports</text>
<g id="clust1" class="cluster">
<title>cluster_DashboardModule</title>
<polygon fill="none" stroke="#000000" stroke-dasharray="1,5" points="8,-70 8,-268 496,-268 496,-70 8,-70"/>
</g>
<g id="clust2" class="cluster">
<title>cluster_DashboardModule_declarations</title>
<polygon fill="none" stroke="#000000" points="330,-78 330,-130 488,-130 488,-78 330,-78"/>
</g>
<g id="clust4" class="cluster">
<title>cluster_DashboardModule_imports</title>
<polygon fill="none" stroke="#000000" points="16,-78 16,-130 322,-130 322,-78 16,-78"/>
</g>
<g id="clust5" class="cluster">
<title>cluster_DashboardModule_exports</title>
<polygon fill="none" stroke="#000000" points="150,-208 150,-260 312,-260 312,-208 150,-208"/>
</g>
<!-- DashboardComponent -->
<g id="node1" class="node">
<title>DashboardComponent</title>
<polygon fill="#ffffb3" stroke="#000000" points="479.9734,-122 338.0266,-122 338.0266,-86 479.9734,-86 479.9734,-122"/>
<text text-anchor="middle" x="409" y="-99.8" font-family="Times,serif" font-size="14.00" fill="#000000">DashboardComponent</text>
</g>
<!-- DashboardModule -->
<g id="node2" class="node">
<title>DashboardModule</title>
<polygon fill="#8dd3c7" stroke="#000000" points="291.191,-187 288.191,-191 267.191,-191 264.191,-187 170.809,-187 170.809,-151 291.191,-151 291.191,-187"/>
<text text-anchor="middle" x="231" y="-164.8" font-family="Times,serif" font-size="14.00" fill="#000000">DashboardModule</text>
</g>
<!-- DashboardComponent&#45;&gt;DashboardModule -->
<g id="edge1" class="edge">
<title>DashboardComponent&#45;&gt;DashboardModule</title>
<path fill="none" stroke="#000000" d="M409,-122.1061C409,-141.3391 409,-169 409,-169 409,-169 301.2627,-169 301.2627,-169"/>
<polygon fill="#000000" stroke="#000000" points="301.2627,-165.5001 291.2627,-169 301.2626,-172.5001 301.2627,-165.5001"/>
</g>
<!-- DashboardComponent  -->
<g id="node5" class="node">
<title>DashboardComponent </title>
<polygon fill="#fb8072" stroke="#000000" points="303.9742,-252 158.0258,-252 158.0258,-216 303.9742,-216 303.9742,-252"/>
<text text-anchor="middle" x="231" y="-229.8" font-family="Times,serif" font-size="14.00" fill="#000000">DashboardComponent </text>
</g>
<!-- DashboardModule&#45;&gt;DashboardComponent  -->
<g id="edge4" class="edge">
<title>DashboardModule&#45;&gt;DashboardComponent </title>
<path fill="none" stroke="#000000" stroke-dasharray="5,2" d="M231,-187.1061C231,-187.1061 231,-205.991 231,-205.991"/>
<polygon fill="#000000" stroke="#000000" points="227.5001,-205.9909 231,-215.991 234.5001,-205.991 227.5001,-205.9909"/>
</g>
<!-- DashboardRoutingModule -->
<g id="node3" class="node">
<title>DashboardRoutingModule</title>
<polygon fill="#8dd3c7" stroke="#000000" points="313.8089,-122 310.8089,-126 289.8089,-126 286.8089,-122 148.1911,-122 148.1911,-86 313.8089,-86 313.8089,-122"/>
<text text-anchor="middle" x="231" y="-99.8" font-family="Times,serif" font-size="14.00" fill="#000000">DashboardRoutingModule</text>
</g>
<!-- DashboardRoutingModule&#45;&gt;DashboardModule -->
<g id="edge2" class="edge">
<title>DashboardRoutingModule&#45;&gt;DashboardModule</title>
<path fill="none" stroke="#000000" d="M231,-122.1061C231,-122.1061 231,-140.991 231,-140.991"/>
<polygon fill="#000000" stroke="#000000" points="227.5001,-140.9909 231,-150.991 234.5001,-140.991 227.5001,-140.9909"/>
</g>
<!-- MaterialModule -->
<g id="node4" class="node">
<title>MaterialModule</title>
<polygon fill="#8dd3c7" stroke="#000000" points="130.4706,-122 127.4706,-126 106.4706,-126 103.4706,-122 23.5294,-122 23.5294,-86 130.4706,-86 130.4706,-122"/>
<text text-anchor="middle" x="77" y="-99.8" font-family="Times,serif" font-size="14.00" fill="#000000">MaterialModule</text>
</g>
<!-- MaterialModule&#45;&gt;DashboardModule -->
<g id="edge3" class="edge">
<title>MaterialModule&#45;&gt;DashboardModule</title>
<path fill="none" stroke="#000000" d="M77,-122.1061C77,-141.3391 77,-169 77,-169 77,-169 160.5771,-169 160.5771,-169"/>
<polygon fill="#000000" stroke="#000000" points="160.5772,-172.5001 170.5771,-169 160.5771,-165.5001 160.5772,-172.5001"/>
</g>
</g>
</svg>
